<?xml version="1.0" standalone="no"?>
<!DOCTYPE svg PUBLIC "-//W3C//DTD SVG 20010904//EN"
 "http://www.w3.org/TR/2001/REC-SVG-20010904/DTD/svg10.dtd">
<svg version="1.0" xmlns="http://www.w3.org/2000/svg"
 width="1760.000000pt" height="1760.000000pt" viewBox="0 0 1760.000000 1760.000000"
 preserveAspectRatio="xMidYMid meet">

<g transform="translate(0.000000,1760.000000) scale(0.100000,-0.100000)"
fill="#000000" stroke="none">
<path d="M8494 17590 c-6 -6 -55 -15 -109 -21 -54 -6 -123 -17 -154 -25 -30
-7 -68 -14 -83 -14 -16 0 -45 -7 -65 -15 -19 -8 -46 -15 -60 -15 -13 0 -40 -7
-61 -16 -20 -8 -55 -19 -77 -24 -22 -4 -56 -14 -75 -21 -19 -7 -60 -21 -90
-32 -30 -11 -67 -26 -82 -33 -14 -8 -31 -14 -37 -14 -19 0 -299 -135 -356
-171 -16 -10 -43 -26 -60 -35 -51 -26 -161 -98 -287 -187 -190 -134 -453 -388
-609 -587 -23 -30 -45 -57 -48 -60 -7 -6 -33 -42 -93 -131 -23 -35 -46 -66
-49 -69 -13 -11 -147 -251 -188 -335 -69 -144 -89 -190 -122 -280 -12 -33 -25
-68 -30 -77 -5 -10 -13 -34 -18 -55 -5 -21 -14 -51 -20 -68 -11 -30 -37 -126
-61 -220 -15 -60 -36 -182 -49 -285 -26 -198 -31 -311 -31 -635 0 -192 -4
-356 -8 -362 -6 -10 -290 -13 -1307 -15 -1432 -3 -1299 2 -1435 -61 -57 -26
-61 -29 -136 -103 -86 -85 -136 -187 -149 -304 -3 -30 -12 -111 -20 -180 -16
-139 -29 -266 -50 -475 -17 -179 -32 -317 -50 -480 -15 -130 -27 -248 -46
-445 -5 -58 -16 -157 -24 -220 -8 -63 -19 -164 -25 -225 -15 -169 -29 -298
-45 -440 -19 -165 -31 -289 -50 -488 -8 -86 -16 -161 -19 -165 -3 -5 -9 -70
-15 -145 -6 -75 -15 -165 -20 -199 -6 -35 -15 -115 -21 -178 -13 -149 -27
-284 -45 -445 -18 -156 -32 -290 -46 -445 -5 -63 -16 -159 -24 -212 -8 -53
-15 -121 -15 -150 0 -29 -6 -96 -14 -148 -8 -52 -17 -131 -20 -175 -3 -44 -13
-136 -21 -205 -17 -143 -31 -275 -50 -475 -14 -142 -27 -262 -46 -435 -6 -52
-17 -156 -24 -230 -18 -184 -33 -321 -50 -475 -18 -160 -33 -308 -45 -440 -6
-55 -16 -158 -25 -230 -21 -190 -34 -313 -50 -470 -7 -77 -18 -183 -24 -235
-20 -177 -32 -295 -46 -435 -17 -176 -32 -314 -50 -480 -17 -146 -30 -277 -45
-440 -6 -60 -17 -162 -25 -225 -8 -63 -19 -162 -24 -220 -19 -199 -31 -315
-46 -445 -22 -197 -36 -326 -50 -475 -15 -153 -29 -287 -50 -475 -9 -71 -19
-175 -25 -230 -12 -138 -28 -286 -45 -440 -8 -71 -19 -177 -25 -235 -6 -58
-16 -145 -21 -195 -22 -193 24 -330 155 -461 68 -67 140 -112 209 -128 15 -3
27 -11 27 -16 0 -7 2507 -10 7220 -10 4614 0 7220 3 7220 10 0 5 18 14 40 20
45 12 129 59 174 97 63 53 122 143 155 238 26 73 29 245 6 393 -8 53 -19 149
-24 212 -13 140 -27 273 -46 445 -17 153 -33 301 -45 440 -6 55 -16 159 -25
230 -21 188 -35 322 -50 475 -15 153 -29 287 -50 475 -9 72 -19 175 -25 230
-12 132 -27 280 -45 440 -14 127 -27 245 -46 435 -5 52 -16 154 -24 225 -20
177 -34 314 -50 480 -7 77 -18 184 -24 238 -27 242 -34 301 -46 432 -15 150
-27 262 -50 470 -8 72 -19 177 -25 235 -19 201 -30 306 -45 430 -8 69 -17 161
-20 205 -3 44 -10 105 -15 135 -6 30 -14 109 -20 175 -5 66 -14 158 -19 205
-19 160 -33 295 -46 430 -7 74 -18 178 -24 230 -6 52 -15 138 -21 190 -6 52
-15 147 -21 210 -5 63 -16 161 -24 216 -8 56 -15 125 -15 153 0 29 -7 96 -15
149 -8 53 -19 149 -24 212 -16 169 -29 299 -46 440 -8 69 -17 161 -20 205 -3
44 -10 105 -15 135 -6 30 -14 109 -20 175 -5 66 -14 158 -19 205 -19 159 -33
295 -46 430 -14 149 -28 278 -50 475 -17 145 -31 285 -46 450 -6 61 -17 154
-25 207 -8 53 -14 121 -14 150 0 29 -6 96 -14 148 -8 52 -17 131 -20 175 -4
44 -13 136 -21 205 -16 138 -29 262 -50 480 -29 294 -55 428 -91 471 -8 8 -14
20 -14 25 0 6 -23 36 -52 68 -66 74 -130 117 -238 159 -55 21 -59 21 -1350 24
-712 2 -1301 5 -1307 8 -10 3 -13 86 -13 367 0 355 -11 553 -41 708 -6 30 -15
79 -19 109 -15 98 -86 358 -125 461 -8 19 -26 67 -40 105 -45 116 -99 230
-166 350 -21 39 -44 82 -50 98 -6 15 -15 27 -20 27 -5 0 -9 6 -9 13 0 6 -18
39 -40 72 -22 33 -45 69 -52 79 -39 59 -233 301 -288 360 -198 212 -356 347
-610 521 -41 28 -82 54 -90 58 -8 4 -28 16 -45 27 -83 54 -400 210 -426 210
-6 0 -20 5 -32 12 -44 24 -269 100 -357 119 -25 6 -67 17 -95 24 -27 8 -79 19
-115 25 -36 7 -85 16 -110 20 -25 5 -67 9 -95 9 -27 1 -63 8 -79 16 -23 12
-83 15 -340 15 -204 0 -316 -4 -322 -10z m541 -1050 c152 -13 377 -60 462 -96
17 -8 39 -14 50 -14 10 0 27 -7 37 -15 11 -8 27 -15 35 -15 9 0 48 -16 86 -35
39 -19 73 -35 77 -35 5 0 165 -91 233 -133 11 -7 76 -55 145 -108 228 -176
403 -375 549 -624 29 -49 57 -97 62 -105 5 -8 14 -26 20 -40 5 -14 21 -48 34
-76 27 -58 46 -109 80 -214 44 -137 55 -179 61 -227 4 -27 13 -73 21 -103 12
-43 16 -149 20 -473 4 -255 2 -422 -4 -428 -7 -7 -2940 -13 -4360 -9 -10 0
-13 81 -12 373 0 362 3 420 29 577 38 236 155 550 275 735 160 250 265 377
430 521 68 59 221 177 260 201 75 45 226 131 255 144 19 9 56 26 81 38 25 11
52 21 60 21 8 0 23 7 33 15 11 8 28 15 39 15 10 0 33 7 50 15 18 8 50 19 72
24 22 5 58 14 80 20 230 56 476 73 740 51z m-3465 -3819 c6 -13 10 -222 10
-610 0 -648 0 -653 62 -767 65 -123 146 -192 303 -260 57 -25 257 -25 317 0
99 41 136 65 203 131 78 78 118 146 146 250 17 65 19 115 19 657 0 322 3 593
6 602 6 15 207 16 2184 16 1977 0 2178 -1 2184 -16 3 -9 6 -275 6 -592 0 -639
2 -668 63 -785 38 -74 154 -193 217 -224 109 -52 126 -56 245 -56 116 0 137 4
234 51 92 44 197 151 238 242 53 117 53 113 53 753 0 327 3 602 6 611 6 14
104 16 1013 16 l1008 0 11 -25 c6 -13 16 -75 22 -137 6 -62 17 -171 25 -243
19 -165 32 -300 46 -445 5 -63 16 -159 24 -212 8 -53 15 -123 16 -155 0 -32 4
-83 9 -113 5 -30 16 -125 24 -210 8 -85 20 -197 26 -247 26 -239 32 -288 45
-428 8 -82 19 -179 25 -215 5 -36 10 -89 10 -118 0 -29 7 -97 15 -150 8 -53
19 -149 24 -212 13 -141 27 -274 46 -445 19 -166 32 -300 45 -445 6 -63 15
-143 21 -178 5 -34 14 -124 20 -199 6 -75 12 -140 15 -145 3 -4 11 -79 19
-165 15 -163 25 -265 50 -488 15 -130 27 -245 46 -445 5 -58 16 -157 24 -220
8 -63 19 -164 25 -225 17 -185 29 -304 45 -435 8 -69 17 -161 20 -205 3 -44
10 -105 15 -135 6 -30 14 -109 20 -175 5 -66 14 -158 19 -205 16 -140 32 -287
46 -430 20 -196 33 -328 50 -475 15 -129 26 -243 46 -445 5 -58 16 -157 24
-220 8 -63 19 -164 24 -225 16 -162 29 -294 46 -440 18 -166 33 -304 50 -480
14 -142 27 -262 46 -435 6 -52 17 -156 24 -230 18 -184 33 -321 50 -475 14
-126 25 -232 45 -440 6 -55 17 -157 26 -227 12 -91 14 -131 6 -140 -8 -11
-1237 -12 -6509 -8 l-6498 5 1 40 c1 43 16 193 39 400 18 162 33 301 45 430 6
55 17 159 25 230 19 172 33 309 50 485 8 80 19 174 24 210 6 36 11 90 11 120
0 30 7 97 15 150 8 52 19 147 25 210 13 148 27 283 45 445 18 159 33 307 45
440 6 55 16 159 25 230 21 190 34 313 50 470 7 77 18 183 24 235 20 177 32
295 46 435 17 176 32 314 50 480 8 72 19 173 24 225 24 238 32 314 46 435 17
154 33 302 45 440 6 55 16 159 25 230 21 188 35 322 50 475 13 135 27 271 46
430 5 47 14 139 19 205 6 66 14 145 20 175 5 30 12 91 15 135 3 44 12 136 20
205 18 150 32 285 46 440 5 63 16 159 24 212 8 53 15 121 15 150 0 29 5 82 10
118 6 36 17 133 25 215 8 83 19 192 25 243 5 50 15 134 20 185 6 50 17 160 25
242 8 83 19 179 25 215 5 36 10 89 10 118 0 29 7 97 15 150 8 53 19 149 24
212 13 140 27 273 46 445 17 153 33 301 45 440 15 158 32 288 41 313 l9 22
1004 0 c984 0 1006 0 1016 -19z"/>
<path d="M5988 8211 c-106 -23 -184 -52 -265 -97 -302 -168 -489 -502 -470
-839 19 -339 207 -629 502 -775 152 -75 239 -95 415 -94 172 1 253 19 397 89
180 88 323 230 413 410 74 149 93 230 94 405 1 176 -19 263 -94 415 -116 233
-338 413 -590 475 -123 31 -291 35 -402 11z"/>
<path d="M8608 8211 c-106 -23 -184 -52 -265 -97 -302 -168 -489 -502 -470
-839 19 -339 207 -629 502 -775 152 -75 239 -95 415 -94 172 1 253 19 397 89
180 88 323 230 413 410 74 149 93 230 94 405 1 176 -19 263 -94 415 -116 233
-338 413 -590 475 -123 31 -291 35 -402 11z"/>
<path d="M11273 8215 c-268 -49 -496 -205 -634 -436 -78 -130 -129 -313 -129
-464 0 -149 54 -342 130 -466 180 -295 496 -464 835 -446 208 12 372 74 536
204 140 112 262 301 310 478 32 118 33 336 1 455 -78 293 -306 541 -583 636
-153 52 -319 66 -466 39z"/>
<path d="M6008 5604 c-555 -100 -885 -661 -707 -1199 104 -313 360 -538 689
-605 375 -76 755 94 960 429 77 125 130 317 130 471 0 155 -50 337 -129 469
-195 327 -575 502 -943 435z"/>
<path d="M8628 5604 c-555 -100 -885 -661 -707 -1199 104 -313 360 -538 689
-605 375 -76 755 94 960 429 77 125 130 317 130 471 0 155 -50 337 -129 469
-195 327 -575 502 -943 435z"/>
<path d="M11278 5604 c-555 -100 -885 -661 -707 -1199 104 -313 360 -538 689
-605 375 -76 755 94 960 429 77 125 130 317 130 471 0 155 -50 337 -129 469
-195 327 -575 502 -943 435z"/>
</g>
</svg>
