<svg width="1760" height="1760" xmlns="http://www.w3.org/2000/svg" preserveAspectRatio="xMidYMid meet" version="1.0">

 <g>
  <title>Layer 1</title>
  <g id="svg_1" fill="#000000" transform="translate(0 1760) scale(0.1 -0.1)">
   <path fill="#ffffff" id="svg_2" d="m8494,17590c-6,-6 -55,-15 -109,-21c-54,-6 -123,-17 -154,-25c-30,-7 -68,-14 -83,-14c-16,0 -45,-7 -65,-15c-19,-8 -46,-15 -60,-15c-13,0 -40,-7 -61,-16c-20,-8 -55,-19 -77,-24c-22,-4 -56,-14 -75,-21c-19,-7 -60,-21 -90,-32c-30,-11 -67,-26 -82,-33c-14,-8 -31,-14 -37,-14c-19,0 -299,-135 -356,-171c-16,-10 -43,-26 -60,-35c-51,-26 -161,-98 -287,-187c-190,-134 -453,-388 -609,-587c-23,-30 -45,-57 -48,-60c-7,-6 -33,-42 -93,-131c-23,-35 -46,-66 -49,-69c-13,-11 -147,-251 -188,-335c-69,-144 -89,-190 -122,-280c-12,-33 -25,-68 -30,-77c-5,-10 -13,-34 -18,-55c-5,-21 -14,-51 -20,-68c-11,-30 -37,-126 -61,-220c-15,-60 -36,-182 -49,-285c-26,-198 -31,-311 -31,-635c0,-192 -4,-356 -8,-362c-6,-10 -290,-13 -1307,-15c-1432,-3 -1299,2 -1435,-61c-57,-26 -61,-29 -136,-103c-86,-85 -136,-187 -149,-304c-3,-30 -12,-111 -20,-180c-16,-139 -29,-266 -50,-475c-17,-179 -32,-317 -50,-480c-15,-130 -27,-248 -46,-445c-5,-58 -16,-157 -24,-220c-8,-63 -19,-164 -25,-225c-15,-169 -29,-298 -45,-440c-19,-165 -31,-289 -50,-488c-8,-86 -16,-161 -19,-165c-3,-5 -9,-70 -15,-145c-6,-75 -15,-165 -20,-199c-6,-35 -15,-115 -21,-178c-13,-149 -27,-284 -45,-445c-18,-156 -32,-290 -46,-445c-5,-63 -16,-159 -24,-212c-8,-53 -15,-121 -15,-150c0,-29 -6,-96 -14,-148c-8,-52 -17,-131 -20,-175c-3,-44 -13,-136 -21,-205c-17,-143 -31,-275 -50,-475c-14,-142 -27,-262 -46,-435c-6,-52 -17,-156 -24,-230c-18,-184 -33,-321 -50,-475c-18,-160 -33,-308 -45,-440c-6,-55 -16,-158 -25,-230c-21,-190 -34,-313 -50,-470c-7,-77 -18,-183 -24,-235c-20,-177 -32,-295 -46,-435c-17,-176 -32,-314 -50,-480c-17,-146 -30,-277 -45,-440c-6,-60 -17,-162 -25,-225c-8,-63 -19,-162 -24,-220c-19,-199 -31,-315 -46,-445c-22,-197 -36,-326 -50,-475c-15,-153 -29,-287 -50,-475c-9,-71 -19,-175 -25,-230c-12,-138 -28,-286 -45,-440c-8,-71 -19,-177 -25,-235c-6,-58 -16,-145 -21,-195c-22,-193 24,-330 155,-461c68,-67 140,-112 209,-128c15,-3 27,-11 27,-16c0,-7 2507,-10 7220,-10c4614,0 7220,3 7220,10c0,5 18,14 40,20c45,12 129,59 174,97c63,53 122,143 155,238c26,73 29,245 6,393c-8,53 -19,149 -24,212c-13,140 -27,273 -46,445c-17,153 -33,301 -45,440c-6,55 -16,159 -25,230c-21,188 -35,322 -50,475c-15,153 -29,287 -50,475c-9,72 -19,175 -25,230c-12,132 -27,280 -45,440c-14,127 -27,245 -46,435c-5,52 -16,154 -24,225c-20,177 -34,314 -50,480c-7,77 -18,184 -24,238c-27,242 -34,301 -46,432c-15,150 -27,262 -50,470c-8,72 -19,177 -25,235c-19,201 -30,306 -45,430c-8,69 -17,161 -20,205c-3,44 -10,105 -15,135c-6,30 -14,109 -20,175c-5,66 -14,158 -19,205c-19,160 -33,295 -46,430c-7,74 -18,178 -24,230c-6,52 -15,138 -21,190c-6,52 -15,147 -21,210c-5,63 -16,161 -24,216c-8,56 -15,125 -15,153c0,29 -7,96 -15,149c-8,53 -19,149 -24,212c-16,169 -29,299 -46,440c-8,69 -17,161 -20,205c-3,44 -10,105 -15,135c-6,30 -14,109 -20,175c-5,66 -14,158 -19,205c-19,159 -33,295 -46,430c-14,149 -28,278 -50,475c-17,145 -31,285 -46,450c-6,61 -17,154 -25,207c-8,53 -14,121 -14,150c0,29 -6,96 -14,148c-8,52 -17,131 -20,175c-4,44 -13,136 -21,205c-16,138 -29,262 -50,480c-29,294 -55,428 -91,471c-8,8 -14,20 -14,25c0,6 -23,36 -52,68c-66,74 -130,117 -238,159c-55,21 -59,21 -1350,24c-712,2 -1301,5 -1307,8c-10,3 -13,86 -13,367c0,355 -11,553 -41,708c-6,30 -15,79 -19,109c-15,98 -86,358 -125,461c-8,19 -26,67 -40,105c-45,116 -99,230 -166,350c-21,39 -44,82 -50,98c-6,15 -15,27 -20,27c-5,0 -9,6 -9,13c0,6 -18,39 -40,72c-22,33 -45,69 -52,79c-39,59 -233,301 -288,360c-198,212 -356,347 -610,521c-41,28 -82,54 -90,58c-8,4 -28,16 -45,27c-83,54 -400,210 -426,210c-6,0 -20,5 -32,12c-44,24 -269,100 -357,119c-25,6 -67,17 -95,24c-27,8 -79,19 -115,25c-36,7 -85,16 -110,20c-25,5 -67,9 -95,9c-27,1 -63,8 -79,16c-23,12 -83,15 -340,15c-204,0 -316,-4 -322,-10zm541,-1050c152,-13 377,-60 462,-96c17,-8 39,-14 50,-14c10,0 27,-7 37,-15c11,-8 27,-15 35,-15c9,0 48,-16 86,-35c39,-19 73,-35 77,-35c5,0 165,-91 233,-133c11,-7 76,-55 145,-108c228,-176 403,-375 549,-624c29,-49 57,-97 62,-105c5,-8 14,-26 20,-40c5,-14 21,-48 34,-76c27,-58 46,-109 80,-214c44,-137 55,-179 61,-227c4,-27 13,-73 21,-103c12,-43 16,-149 20,-473c4,-255 2,-422 -4,-428c-7,-7 -2940,-13 -4360,-9c-10,0 -13,81 -12,373c0,362 3,420 29,577c38,236 155,550 275,735c160,250 265,377 430,521c68,59 221,177 260,201c75,45 226,131 255,144c19,9 56,26 81,38c25,11 52,21 60,21c8,0 23,7 33,15c11,8 28,15 39,15c10,0 33,7 50,15c18,8 50,19 72,24c22,5 58,14 80,20c230,56 476,73 740,51zm-3465,-3819c6,-13 10,-222 10,-610c0,-648 0,-653 62,-767c65,-123 146,-192 303,-260c57,-25 257,-25 317,0c99,41 136,65 203,131c78,78 118,146 146,250c17,65 19,115 19,657c0,322 3,593 6,602c6,15 207,16 2184,16c1977,0 2178,-1 2184,-16c3,-9 6,-275 6,-592c0,-639 2,-668 63,-785c38,-74 154,-193 217,-224c109,-52 126,-56 245,-56c116,0 137,4 234,51c92,44 197,151 238,242c53,117 53,113 53,753c0,327 3,602 6,611c6,14 104,16 1013,16l1008,0l11,-25c6,-13 16,-75 22,-137c6,-62 17,-171 25,-243c19,-165 32,-300 46,-445c5,-63 16,-159 24,-212c8,-53 15,-123 16,-155c0,-32 4,-83 9,-113c5,-30 16,-125 24,-210c8,-85 20,-197 26,-247c26,-239 32,-288 45,-428c8,-82 19,-179 25,-215c5,-36 10,-89 10,-118c0,-29 7,-97 15,-150c8,-53 19,-149 24,-212c13,-141 27,-274 46,-445c19,-166 32,-300 45,-445c6,-63 15,-143 21,-178c5,-34 14,-124 20,-199c6,-75 12,-140 15,-145c3,-4 11,-79 19,-165c15,-163 25,-265 50,-488c15,-130 27,-245 46,-445c5,-58 16,-157 24,-220c8,-63 19,-164 25,-225c17,-185 29,-304 45,-435c8,-69 17,-161 20,-205c3,-44 10,-105 15,-135c6,-30 14,-109 20,-175c5,-66 14,-158 19,-205c16,-140 32,-287 46,-430c20,-196 33,-328 50,-475c15,-129 26,-243 46,-445c5,-58 16,-157 24,-220c8,-63 19,-164 24,-225c16,-162 29,-294 46,-440c18,-166 33,-304 50,-480c14,-142 27,-262 46,-435c6,-52 17,-156 24,-230c18,-184 33,-321 50,-475c14,-126 25,-232 45,-440c6,-55 17,-157 26,-227c12,-91 14,-131 6,-140c-8,-11 -1237,-12 -6509,-8l-6498,5l1,40c1,43 16,193 39,400c18,162 33,301 45,430c6,55 17,159 25,230c19,172 33,309 50,485c8,80 19,174 24,210c6,36 11,90 11,120c0,30 7,97 15,150c8,52 19,147 25,210c13,148 27,283 45,445c18,159 33,307 45,440c6,55 16,159 25,230c21,190 34,313 50,470c7,77 18,183 24,235c20,177 32,295 46,435c17,176 32,314 50,480c8,72 19,173 24,225c24,238 32,314 46,435c17,154 33,302 45,440c6,55 16,159 25,230c21,188 35,322 50,475c13,135 27,271 46,430c5,47 14,139 19,205c6,66 14,145 20,175c5,30 12,91 15,135c3,44 12,136 20,205c18,150 32,285 46,440c5,63 16,159 24,212c8,53 15,121 15,150c0,29 5,82 10,118c6,36 17,133 25,215c8,83 19,192 25,243c5,50 15,134 20,185c6,50 17,160 25,242c8,83 19,179 25,215c5,36 10,89 10,118c0,29 7,97 15,150c8,53 19,149 24,212c13,140 27,273 46,445c17,153 33,301 45,440c15,158 32,288 41,313l9,22l1004,0c984,0 1006,0 1016,-19z"/>
   <path fill="#ffffff" id="svg_3" d="m5988,8211c-106,-23 -184,-52 -265,-97c-302,-168 -489,-502 -470,-839c19,-339 207,-629 502,-775c152,-75 239,-95 415,-94c172,1 253,19 397,89c180,88 323,230 413,410c74,149 93,230 94,405c1,176 -19,263 -94,415c-116,233 -338,413 -590,475c-123,31 -291,35 -402,11z"/>
   <path fill="#ffffff" id="svg_4" d="m8608,8211c-106,-23 -184,-52 -265,-97c-302,-168 -489,-502 -470,-839c19,-339 207,-629 502,-775c152,-75 239,-95 415,-94c172,1 253,19 397,89c180,88 323,230 413,410c74,149 93,230 94,405c1,176 -19,263 -94,415c-116,233 -338,413 -590,475c-123,31 -291,35 -402,11z"/>
   <path fill="#ffffff" id="svg_5" d="m11273,8215c-268,-49 -496,-205 -634,-436c-78,-130 -129,-313 -129,-464c0,-149 54,-342 130,-466c180,-295 496,-464 835,-446c208,12 372,74 536,204c140,112 262,301 310,478c32,118 33,336 1,455c-78,293 -306,541 -583,636c-153,52 -319,66 -466,39z"/>
   <path fill="#ffffff" id="svg_6" d="m6008,5604c-555,-100 -885,-661 -707,-1199c104,-313 360,-538 689,-605c375,-76 755,94 960,429c77,125 130,317 130,471c0,155 -50,337 -129,469c-195,327 -575,502 -943,435z"/>
   <path fill="#ffffff" id="svg_7" d="m8628,5604c-555,-100 -885,-661 -707,-1199c104,-313 360,-538 689,-605c375,-76 755,94 960,429c77,125 130,317 130,471c0,155 -50,337 -129,469c-195,327 -575,502 -943,435z"/>
   <path fill="#ffffff" id="svg_8" d="m11278,5604c-555,-100 -885,-661 -707,-1199c104,-313 360,-538 689,-605c375,-76 755,94 960,429c77,125 130,317 130,471c0,155 -50,337 -129,469c-195,327 -575,502 -943,435z"/>
  </g>
 </g>
</svg>